<svg width="25" height="14" viewBox="0 0 25 14" fill="none" xmlns="http://www.w3.org/2000/svg">
<g clip-path="url(#clip0_602_9649)">
<path d="M16.6164 3.25228L15.9979 3.60859V3.9578C15.9979 4.36374 15.8932 4.70114 15.6843 4.96941C15.4754 5.23827 15.1564 5.3724 14.7267 5.3724C14.326 5.3724 14.0195 5.24122 13.8076 4.97827C13.5957 4.71533 13.4898 4.34956 13.4898 3.88099C13.4898 3.41241 13.617 3.00765 13.8721 2.71929C14.0893 2.47289 14.4059 2.33226 14.8214 2.29621V1.58301C14.3858 1.6096 14.0118 1.70591 13.7005 1.87491C13.3312 2.07522 13.0507 2.35235 12.8589 2.70688C12.6672 3.06142 12.5713 3.46973 12.5713 3.93298C12.5713 4.39624 12.6571 4.78919 12.8287 5.11181C13.0004 5.43503 13.2365 5.68084 13.5371 5.84925C13.8378 6.01765 14.1769 6.10215 14.5545 6.10215C14.835 6.10215 15.0682 6.06492 15.2546 5.99047C15.4405 5.91602 15.5925 5.82325 15.7097 5.71157C15.8269 5.59989 15.9228 5.49589 15.9974 5.3984V6.00702H16.6608C16.7827 6.00702 16.8821 5.90834 16.8821 5.78602V3.09865L16.6158 3.25228H16.6164Z" fill="#030F17"/>
<path d="M17.0604 2.01222C17.2191 2.1038 17.2191 2.33248 17.0604 2.42407L16.3408 2.83887L15.6211 3.25368C15.4625 3.34527 15.2637 3.23063 15.2637 3.04746V1.38882C15.2637 1.20565 15.4619 1.09102 15.6211 1.1826L16.3408 1.59741L17.0604 2.01222Z" fill="#1C9AE8"/>
<path d="M3.58541 2.10469C3.57121 2.16733 3.54399 2.21932 3.50197 2.26069C3.45995 2.30205 3.39425 2.30619 3.30371 2.27132C3.20605 2.23646 3.05514 2.20396 2.85037 2.17264C2.6456 2.14133 2.39703 2.12596 2.10526 2.12596C1.85492 2.12596 1.65903 2.14369 1.5164 2.17796C1.37377 2.21282 1.26783 2.2595 1.19859 2.31859C1.12934 2.37768 1.08733 2.44327 1.07371 2.51654C1.05951 2.58922 1.053 2.66072 1.053 2.72985C1.053 2.93135 1.14 3.06312 1.3134 3.12516C1.48681 3.1878 1.74958 3.2327 2.10053 3.26048C2.45148 3.28825 2.74147 3.33316 2.9711 3.39579C3.20014 3.45842 3.38419 3.54647 3.52327 3.6611C3.66235 3.77573 3.75586 3.92818 3.80439 4.11904C3.85292 4.3099 3.87718 4.49544 3.87718 4.67566C3.87718 4.85588 3.84227 5.02961 3.77302 5.19624C3.70378 5.36287 3.58896 5.51177 3.42917 5.64354C3.26938 5.77531 3.06106 5.88108 2.80361 5.96085C2.54617 6.04062 2.22363 6.08021 1.83421 6.08021C1.61168 6.08021 1.41046 6.06958 1.22936 6.04889C1.04886 6.02821 0.883738 6.00044 0.734007 5.96558C0.584275 5.93072 0.444013 5.88935 0.312036 5.8409V5.32032C0.312036 5.27896 0.319138 5.2441 0.33275 5.21633C0.346362 5.18856 0.365892 5.16787 0.390157 5.15369C0.414422 5.1401 0.454074 5.1401 0.510297 5.15369C0.649376 5.18856 0.829882 5.22519 1.05241 5.26301C1.27493 5.30142 1.54244 5.32032 1.85492 5.32032C2.10526 5.32032 2.31003 5.30496 2.46983 5.27364C2.62962 5.24233 2.75449 5.19919 2.84504 5.14365C2.935 5.0881 2.99773 5.02251 3.03265 4.9457C3.06757 4.86947 3.08473 4.78261 3.08473 4.68571C3.08473 4.5888 3.07585 4.50194 3.05869 4.42571C3.04153 4.34949 2.99596 4.2839 2.92316 4.22777C2.85037 4.17222 2.74443 4.12554 2.60535 4.08713C2.46627 4.04932 2.24552 4.01623 1.94369 3.98845C1.64127 3.96068 1.37554 3.91223 1.14651 3.8425C0.917472 3.77337 0.734598 3.68651 0.599071 3.58251C0.463543 3.47851 0.371219 3.35738 0.322689 3.21852C0.274159 3.07966 0.253446 2.9343 0.259956 2.78126C0.259956 2.62172 0.291322 2.46041 0.354056 2.29732C0.416789 2.13424 0.522725 1.9871 0.671865 1.85533C0.821005 1.72357 1.01749 1.61957 1.26073 1.54334C1.50397 1.46712 1.80284 1.42871 2.15734 1.42871C2.38638 1.42871 2.59352 1.44112 2.77757 1.46535C2.96163 1.48957 3.12498 1.51912 3.2676 1.55398C3.40964 1.58884 3.54044 1.62666 3.65821 1.66861L3.58541 2.10587V2.10469Z" fill="#030F17"/>
<path d="M5.61783 1.74665C5.83326 1.67397 6.0694 1.60956 6.32684 1.55402C6.58369 1.49848 6.8583 1.4707 7.15007 1.4707C7.46965 1.4707 7.74781 1.50911 7.98395 1.58534C8.22008 1.66156 8.40769 1.77974 8.54677 1.93928C8.79711 1.79333 9.07113 1.67929 9.37 1.59597C9.66887 1.51266 9.93992 1.47129 10.1832 1.47129C10.7389 1.47129 11.1212 1.55816 11.3295 1.73129C11.5378 1.90501 11.6787 2.09705 11.7515 2.30859C11.8243 2.52013 11.861 2.73698 11.861 2.95916V5.76885C11.861 5.82439 11.8539 5.86753 11.8403 5.89885C11.8261 5.93016 11.8018 5.95616 11.7675 5.97684C11.7326 5.99753 11.6805 6.00816 11.6112 6.00816H11.0484V2.9692C11.0484 2.70567 10.9738 2.49945 10.8241 2.34995C10.6744 2.20105 10.4607 2.12305 10.1832 2.11596C9.89139 2.11596 9.63217 2.14905 9.40669 2.21464C9.18061 2.28082 8.97407 2.35527 8.78646 2.43858C8.80007 2.50122 8.8125 2.58808 8.82315 2.69858C8.8338 2.80966 8.83854 2.90007 8.83854 2.9692V5.7789C8.83854 5.82735 8.83144 5.86753 8.81783 5.89885C8.80362 5.93016 8.78113 5.95616 8.75036 5.97684C8.71899 5.99753 8.67579 6.00816 8.62016 6.00816H8.03662V2.91721C8.0159 2.39663 7.72058 2.13014 7.15066 2.11596C6.8796 2.11596 6.63459 2.13664 6.41561 2.17859C6.19664 2.21995 5.99719 2.27904 5.8161 2.35527V5.75821C5.8161 5.80667 5.81077 5.84862 5.80071 5.88289C5.79006 5.91776 5.76934 5.9473 5.73797 5.97153C5.70661 5.99575 5.65985 6.00816 5.59712 6.00816H5.00293V2.00132C5.19764 1.90442 5.40241 1.81933 5.61783 1.74665Z" fill="#030F17"/>
<path d="M17.958 2.80257C17.958 2.65662 17.9959 2.50595 18.0728 2.34995C18.1492 2.19395 18.264 2.05155 18.4167 1.92333C18.5694 1.7951 18.7641 1.68756 19.0002 1.6007C19.2363 1.51384 19.5145 1.4707 19.8341 1.4707C20.0217 1.4707 20.2022 1.47957 20.3762 1.4967C20.5496 1.51384 20.7011 1.53806 20.8295 1.56938C20.958 1.6007 21.0568 1.63024 21.1266 1.65802C21.1959 1.68579 21.2379 1.73424 21.2515 1.80397C21.2651 1.8731 21.2551 1.95996 21.2201 2.06396C21.1787 2.19573 21.1402 2.31391 21.1053 2.4179C21.0219 2.39722 20.9248 2.37654 20.8136 2.35527C20.7023 2.33459 20.5703 2.31391 20.4176 2.29263C20.2649 2.27195 20.0909 2.26132 19.8962 2.26132C19.6737 2.26132 19.4914 2.28554 19.3488 2.334C19.2062 2.38245 19.0937 2.44154 19.0103 2.51067C18.9268 2.57981 18.8694 2.65485 18.8381 2.73462C18.8067 2.81439 18.7913 2.88884 18.7913 2.95857V5.76826C18.7913 5.85158 18.7688 5.91244 18.7238 5.95025C18.6788 5.98866 18.6072 6.00757 18.5102 6.00757H17.958V2.80257Z" fill="#030F17"/>
<path d="M22.9301 2.26095V4.69602C22.9372 4.94596 22.9993 5.11614 23.1177 5.20596C23.2354 5.29636 23.4515 5.34127 23.7639 5.34127C23.861 5.34127 23.9758 5.33064 24.1078 5.30995C24.2398 5.28927 24.3268 5.27509 24.3682 5.26859C24.4238 5.255 24.4652 5.25973 24.4931 5.28396C24.5209 5.30818 24.5345 5.35841 24.5345 5.43463V5.91325C24.4931 5.94812 24.3836 5.98475 24.206 6.02257C24.0291 6.06039 23.8083 6.07989 23.5444 6.07989C23.3846 6.07989 23.2212 6.05743 23.0543 6.01252C22.8874 5.96762 22.7365 5.89316 22.601 5.78858C22.4655 5.68458 22.3524 5.54927 22.2625 5.38263C22.1719 5.216 22.127 5.01155 22.127 4.7687V0.169786L22.7419 0.0137904C22.7768 0.00019986 22.8058 -0.00334549 22.8306 0.00315432C22.8549 0.010245 22.8774 0.0273809 22.8981 0.0551528C22.9188 0.0829247 22.9295 0.131378 22.9295 0.201103V1.47034H24.3362V2.0116C24.3362 2.102 24.3191 2.16582 24.2842 2.20423C24.2492 2.24263 24.1972 2.26154 24.1279 2.26154H22.9295L22.9301 2.26095Z" fill="#030F17"/>
<path d="M2.79706 10.1955C2.67456 10.095 2.5124 10.0164 2.31532 9.96264C2.12475 9.91065 1.88151 9.87283 1.59152 9.84978C1.31573 9.82792 1.10859 9.79306 0.975431 9.74461C0.869494 9.70679 0.822148 9.63293 0.822148 9.50648C0.822148 9.45566 0.827475 9.40307 0.837536 9.34989C0.844638 9.31089 0.868311 9.27485 0.909146 9.23998C0.954717 9.20158 1.02929 9.16908 1.13108 9.14426C1.23938 9.11767 1.39326 9.10467 1.58856 9.10467C1.82056 9.10467 2.01941 9.11708 2.18098 9.1419C2.34077 9.16612 2.45972 9.19212 2.53074 9.21753C2.66627 9.26953 2.74439 9.23053 2.78641 9.18917C2.83198 9.14367 2.86276 9.08635 2.87814 9.01899L2.95035 8.58587L2.87992 8.56105C2.78227 8.52678 2.67219 8.49428 2.55382 8.46532C2.43605 8.43637 2.29934 8.41214 2.14606 8.39146C1.99337 8.37137 1.81996 8.36133 1.63058 8.36133C1.33526 8.36133 1.08078 8.39383 0.875412 8.45823C0.666499 8.52382 0.49487 8.61541 0.364668 8.73004C0.233284 8.84586 0.138 8.97881 0.0823685 9.12417C0.0279207 9.26657 0.000104971 9.40898 0.000104971 9.54488C-0.00581327 9.67961 0.0125333 9.81019 0.0557364 9.9331C0.100715 10.0619 0.185938 10.1754 0.309629 10.2699C0.427994 10.3609 0.587194 10.4365 0.782496 10.4956C0.973655 10.5535 1.19796 10.5943 1.4483 10.6174C1.68739 10.6392 1.86317 10.6652 1.97088 10.6948C2.07208 10.7225 2.14902 10.7562 2.19873 10.794C2.24134 10.8265 2.26679 10.8626 2.27626 10.9039C2.28869 10.9595 2.2952 11.0239 2.2952 11.096C2.2952 11.1616 2.28336 11.2207 2.26087 11.2709C2.24016 11.3164 2.20051 11.3571 2.14251 11.3926C2.07859 11.4316 1.98627 11.4635 1.86731 11.4866C1.74362 11.5108 1.58087 11.5232 1.38438 11.5232C1.13581 11.5232 0.921575 11.5078 0.747578 11.4783C0.570623 11.4481 0.425034 11.4186 0.313772 11.3908C0.243936 11.3737 0.191856 11.3761 0.15102 11.3997C0.115511 11.4198 0.0882867 11.4493 0.0693484 11.4877C0.0515936 11.5232 0.0427163 11.564 0.0427163 11.6118V12.0964L0.100715 12.1176C0.210794 12.1584 0.329751 12.1933 0.454034 12.2222C0.577133 12.2512 0.716212 12.2742 0.866535 12.2914C1.01567 12.3085 1.18434 12.3173 1.36781 12.3173C1.69095 12.3173 1.96496 12.2831 2.18157 12.2163C2.40054 12.1484 2.58164 12.0562 2.71954 11.9421C2.8598 11.8263 2.96277 11.6928 3.02432 11.5445C3.08528 11.3991 3.11606 11.2449 3.11606 11.0877C3.11606 10.9305 3.09534 10.7751 3.05392 10.6132C3.00953 10.4401 2.92312 10.2995 2.79588 10.1949L2.79706 10.1955Z" fill="#1C9AE8"/>
<path d="M24.6912 10.6138C24.6468 10.4413 24.5604 10.3 24.4332 10.1955C24.3107 10.095 24.1491 10.0164 23.9514 9.96264C23.7609 9.91065 23.5176 9.87283 23.2276 9.84978C22.9519 9.82792 22.7447 9.79306 22.6116 9.74461C22.5056 9.70679 22.4589 9.63352 22.4589 9.50648C22.4589 9.45566 22.4642 9.40307 22.4743 9.34989C22.4814 9.31089 22.505 9.27485 22.5459 9.23998C22.5914 9.20158 22.666 9.16908 22.7678 9.14426C22.8761 9.11767 23.03 9.10467 23.2253 9.10467C23.4573 9.10467 23.6561 9.11708 23.8171 9.1419C23.9775 9.16612 24.0959 9.19212 24.1669 9.21753C24.3024 9.26953 24.3805 9.23112 24.4225 9.18917C24.4681 9.14367 24.4989 9.08635 24.5143 9.01899L24.5865 8.58587L24.516 8.56105C24.4184 8.52678 24.3083 8.49428 24.19 8.46532C24.0722 8.43637 23.9355 8.41214 23.7828 8.39146C23.6301 8.37137 23.4567 8.36133 23.2673 8.36133C22.972 8.36133 22.7175 8.39383 22.5121 8.45823C22.3032 8.52382 22.1316 8.61541 22.0014 8.73004C21.87 8.84586 21.7747 8.97881 21.7191 9.12417C21.6646 9.26598 21.6368 9.40898 21.6368 9.54488C21.6309 9.67961 21.6493 9.81079 21.6925 9.9331C21.7374 10.0619 21.8227 10.1754 21.9463 10.2699C22.0647 10.3609 22.2239 10.4365 22.4192 10.4956C22.6104 10.5535 22.8347 10.5943 23.085 10.6174C23.3241 10.6392 23.4999 10.6652 23.6076 10.6948C23.7088 10.7225 23.7857 10.7562 23.8354 10.794C23.8781 10.8265 23.9035 10.8626 23.913 10.9039C23.9254 10.9595 23.9319 11.0239 23.9319 11.096C23.9319 11.1616 23.9201 11.2207 23.8976 11.2709C23.8769 11.3164 23.8372 11.3571 23.7792 11.3926C23.7153 11.4316 23.623 11.4635 23.504 11.4866C23.3803 11.5108 23.2176 11.5232 23.0211 11.5232C22.7725 11.5232 22.5583 11.5078 22.3843 11.4783C22.2073 11.4481 22.0618 11.4186 21.9505 11.3908C21.8807 11.3737 21.8286 11.3761 21.7877 11.3997C21.7528 11.4198 21.725 11.4493 21.7061 11.4877C21.6883 11.5232 21.6794 11.564 21.6794 11.6118V12.0964L21.7374 12.1176C21.8475 12.1584 21.9665 12.1933 22.0908 12.2222C22.2139 12.2512 22.3529 12.2742 22.5027 12.2914C22.6518 12.3085 22.8205 12.3173 23.0039 12.3173C23.3271 12.3173 23.6011 12.2831 23.8177 12.2163C24.0367 12.1484 24.2178 12.0562 24.3557 11.9421C24.4959 11.8263 24.5983 11.6928 24.6605 11.5445C24.7214 11.3985 24.7522 11.2449 24.7522 11.0877C24.7522 10.9305 24.7315 10.7751 24.69 10.6132L24.6912 10.6138Z" fill="#1C9AE8"/>
<path d="M6.47694 8.59994C6.32484 8.50126 6.1467 8.43035 5.94726 8.38899C5.75255 8.34881 5.54304 8.32812 5.32348 8.32812C5.12285 8.32812 4.9453 8.33817 4.79498 8.35826C4.64584 8.37835 4.50735 8.40317 4.38425 8.43153C4.26056 8.46048 4.13924 8.49535 4.02383 8.53553L3.96406 8.55621V9.09274C3.96406 9.17487 3.9901 9.23514 4.0404 9.27237C4.09544 9.31255 4.1712 9.31728 4.26234 9.28832C4.38248 9.25583 4.53872 9.22037 4.72573 9.18433C4.90861 9.14887 5.10924 9.13115 5.32288 9.13115C5.48919 9.13115 5.63123 9.14592 5.74545 9.17487C5.85612 9.20324 5.94489 9.23987 6.00881 9.28478C6.06917 9.32673 6.11238 9.37223 6.13664 9.42068C6.1615 9.47032 6.17393 9.51641 6.17393 9.55895V9.81835C6.09462 9.82722 5.99283 9.83844 5.8644 9.85085C5.6981 9.8674 5.42172 9.89931 5.01987 9.94835C4.61388 9.99799 4.28364 10.1144 4.03804 10.2946C3.78059 10.4837 3.65039 10.7449 3.65039 11.0722C3.65039 11.3068 3.69951 11.513 3.79716 11.6862C3.89422 11.8587 4.02206 11.997 4.17771 12.098C4.32921 12.1961 4.49788 12.2682 4.67898 12.3125C4.85712 12.3562 5.07136 12.3787 5.31401 12.3787C5.57204 12.3787 5.80463 12.358 6.00526 12.3178C6.20411 12.2776 6.38047 12.2292 6.53021 12.1748C6.6823 12.1193 6.82138 12.0531 6.94448 11.9769L6.9865 11.9509V9.64404C6.9865 9.3935 6.94034 9.18078 6.8492 9.01061C6.75747 8.84043 6.632 8.70275 6.47635 8.60171L6.47694 8.59994ZM6.16623 10.6338V11.461C6.08634 11.4924 5.98869 11.5184 5.87565 11.5378C5.73479 11.5621 5.54304 11.5745 5.30631 11.5745C5.03644 11.5745 4.8222 11.5278 4.67069 11.435C4.53102 11.3499 4.46356 11.2448 4.46356 11.113C4.46356 10.9812 4.52629 10.9026 4.66182 10.8489C4.8222 10.7851 5.00508 10.7425 5.20452 10.7236C5.41343 10.7041 5.575 10.6881 5.68745 10.6769C5.79989 10.6657 5.90287 10.6556 5.99579 10.6474C6.05438 10.6421 6.1106 10.6373 6.16564 10.6332L6.16623 10.6338Z" fill="#1C9AE8"/>
<path d="M11.0015 8.47823C10.9737 8.44042 10.921 8.39551 10.8281 8.39551H10.2156L9.16034 11.2767L8.1211 8.39551H7.52513C7.41742 8.39551 7.36238 8.44042 7.33457 8.47823C7.29373 8.53437 7.28959 8.60941 7.32391 8.70218L8.50993 11.7299C8.56911 11.8776 8.64309 12.01 8.72949 12.1229C8.82892 12.2528 8.97333 12.3184 9.15975 12.3184C9.34618 12.3184 9.50005 12.2528 9.60184 12.124C9.69062 12.0118 9.76874 11.8806 9.83502 11.7299C9.96404 11.4055 10.0664 11.1432 10.1404 10.9511C10.2138 10.7597 10.3333 10.4494 10.5002 10.0216C10.6665 9.59324 10.8376 9.15362 11.0133 8.701C11.0465 8.61 11.0423 8.53555 11.0015 8.47941V8.47823Z" fill="#1C9AE8"/>
<path d="M12.7251 11.4471H12.6109C12.5772 11.4471 12.5464 11.4429 12.518 11.4341C12.4967 11.4276 12.4795 11.4169 12.4647 11.4004C12.4624 11.3974 12.4494 11.3809 12.4494 11.3242V8.66043C12.4494 8.59012 12.4411 8.49026 12.3689 8.44003C12.3251 8.4093 12.2612 8.39453 12.1742 8.39453H11.6113V11.3496C11.6113 11.518 11.635 11.6616 11.6812 11.7762C11.7279 11.8914 11.7883 11.9866 11.8617 12.0592C11.9356 12.1337 12.0185 12.1863 12.1085 12.2158C12.1931 12.2442 12.2783 12.2584 12.3612 12.2584H12.9583V11.6964C12.9583 11.6255 12.9406 11.567 12.9051 11.5227C12.8772 11.4884 12.824 11.4471 12.7257 11.4471H12.7251Z" fill="#1C9AE8"/>
<path d="M12.0227 8.24444C12.1635 8.24444 12.2854 8.19776 12.3837 8.10676C12.4837 8.0134 12.5346 7.88813 12.5346 7.73332C12.5346 7.5785 12.4831 7.45323 12.3825 7.36283C12.2843 7.27479 12.1629 7.23047 12.0227 7.23047C11.8824 7.23047 11.7694 7.27479 11.6682 7.36224C11.5634 7.45264 11.5107 7.57791 11.5107 7.73391C11.5107 7.8899 11.5634 8.01517 11.667 8.10853C11.7682 8.19953 11.8877 8.24562 12.0227 8.24562V8.24444Z" fill="#1C9AE8"/>
<path d="M16.7548 9.16958C16.7246 9.08331 16.6855 8.99704 16.6376 8.91372C16.5879 8.82686 16.5163 8.74118 16.4251 8.65905C16.331 8.57455 16.2026 8.50837 16.0434 8.46228C15.8872 8.41737 15.6605 8.39551 15.3498 8.39551C15.0681 8.39551 14.813 8.41914 14.5905 8.46523C14.3697 8.51132 14.1697 8.5645 13.9951 8.62477C13.8188 8.68504 13.656 8.75713 13.5104 8.83868L13.4648 8.86408V12.2599H14.0277C14.1283 12.2599 14.2034 12.231 14.252 12.1737C14.2969 12.1205 14.3194 12.0543 14.3194 11.9769V9.26471C14.4212 9.22866 14.5514 9.19321 14.7071 9.15894C14.8917 9.11817 15.0616 9.09749 15.2131 9.09749C15.332 9.09749 15.4451 9.10458 15.5487 9.11758C15.6422 9.12999 15.7244 9.15835 15.7919 9.20148C15.8582 9.24403 15.9103 9.30371 15.9517 9.38289C15.9931 9.46325 16.0138 9.57611 16.0138 9.71851V12.2593H16.5938C16.7021 12.2593 16.7601 12.2085 16.7897 12.166C16.8252 12.1146 16.8436 12.0508 16.8436 11.9763V9.78647C16.8436 9.67656 16.8365 9.56725 16.8217 9.46148C16.8069 9.35512 16.7844 9.25703 16.7542 9.17017L16.7548 9.16958Z" fill="#1C9AE8"/>
<path d="M20.6106 8.55739C20.4478 8.49771 20.2632 8.44394 20.062 8.39785C19.8584 8.35117 19.6382 8.32812 19.4068 8.32812C19.1381 8.32812 18.9014 8.36417 18.7037 8.43449C18.5055 8.50539 18.3339 8.60171 18.1936 8.72107C18.0545 8.83925 17.9385 8.97338 17.8491 9.11874C17.761 9.26233 17.6929 9.40768 17.6456 9.55186C17.5988 9.69427 17.5663 9.8349 17.5485 9.96962C17.5307 10.1043 17.5225 10.2137 17.5225 10.3023C17.5225 10.7201 17.5852 11.0604 17.7095 11.3133C17.8338 11.5674 17.9924 11.7677 18.1806 11.9077C18.3682 12.0478 18.5765 12.1412 18.8008 12.1861C19.0174 12.2292 19.224 12.2511 19.4151 12.2511C19.6584 12.2511 19.8619 12.2316 20.02 12.1937C20.1206 12.1695 20.2117 12.1447 20.2916 12.1187V12.2977C20.2916 12.4206 20.281 12.5388 20.2591 12.6487C20.2395 12.7498 20.1963 12.8372 20.1271 12.9158C20.0584 12.9938 19.9549 13.0564 19.8187 13.1014C19.6761 13.1486 19.4802 13.1728 19.237 13.1728C19.1056 13.1728 18.9849 13.1675 18.8777 13.1563C18.7706 13.1451 18.6747 13.1303 18.5919 13.1114C18.5067 13.0919 18.4274 13.0712 18.3569 13.0499L18.2652 13.0216L18.1516 13.5368C18.1113 13.7082 18.1723 13.785 18.2309 13.8199C18.2859 13.8524 18.3682 13.8831 18.4812 13.9138C18.5901 13.9434 18.7144 13.9652 18.8505 13.98C18.986 13.9942 19.1133 14.0019 19.2281 14.0019C19.8519 14.0019 20.3289 13.8577 20.6467 13.5735C20.9669 13.2863 21.129 12.826 21.129 12.2056V8.80616L21.0846 8.78075C20.9343 8.69389 20.7739 8.61944 20.6094 8.55857L20.6106 8.55739ZM20.2922 9.19024V11.3795C20.2218 11.4019 20.1312 11.4268 20.0205 11.4545C19.8815 11.4894 19.695 11.5065 19.466 11.5065C19.2583 11.5065 19.0831 11.4776 18.9452 11.4203C18.8109 11.3647 18.7037 11.2849 18.6262 11.1821C18.5469 11.0775 18.4895 10.9505 18.4558 10.8057C18.4208 10.6556 18.4031 10.4831 18.4031 10.2934C18.4031 9.84554 18.4931 9.52527 18.6706 9.34032C18.847 9.15656 19.1346 9.06319 19.5252 9.06319C19.7039 9.06319 19.8554 9.07679 19.9762 9.10338C20.0797 9.12642 20.1857 9.15537 20.2922 9.19024Z" fill="#1C9AE8"/>
</g>
<defs>
<clipPath id="clip0_602_9649">
<rect width="24.7536" height="14" fill="white"/>
</clipPath>
</defs>
</svg>
